# xmcd CD database file
#
# Track frame offsets:
#	150
#	34741
#	79301
#	154166
#
# Disc length: 2378 seconds
#
# Revision: 0
# Processed by: cddbd v1.5.2PL0 Copyright (c) Steve Scherf et al.
# Submitted via: CDex 1.70beta2
#
DISCID=28094804
DTITLE=Tom Gavornik - Acceleration
DYEAR=2006
DGENRE=Jazz
TTITLE0=Requiem For A Broken Swing
TTITLE1=Breeze In a Bottle
TTITLE2=Acceleration
TTITLE3=One Small Cup Of Water
EXTD=YEAR: 2006
EXTT0=
EXTT1=
EXTT2=
EXTT3=
PLAYORDER=
